# xmcd
#
# Track frame offsets: 
#        150
#        11519
#        25158
#        34313
#        51879
#        64430
#        74232
#        88721
#        104698
#        116436
#        130709
#        147274
#        158612
#        169224
#        180649
#        190947
#        202353
#        215395
#        227157
#        239287
#        254908
#        268915
#
# Disc length: 3780 seconds
#
# Revision: 0
# Processed by: cddbd v1.5.1PL0 Copyright (c) Steve Scherf et al.
# Submitted via: ExactAudioCopy v0.95a5
#
DISCID=590ec216
DTITLE=Мария Пахоменко - Золотая мелодия. Любовь останется
DYEAR=2005
DGENRE=Retro
TTITLE0=Стоят девчонки
TTITLE1=Чудо кони
TTITLE2=Когда смеялись львы
TTITLE3=Танцуем, пока танцуется
TTITLE4=Ненаглядный мой
TTITLE5=Если это любовь
TTITLE6=Ну, а лето продолжается
TTITLE7=Грусть
TTITLE8=Зачем ты снишься мне
TTITLE9=Не забыть, не простить
TTITLE10=Волга в сердце впадает мое
TTITLE11=Матросские ночи
TTITLE12=Шагает, шагает
TTITLE13=От разлуки до разлуки
TTITLE14=Подари мне солнце
TTITLE15=А весна была до нас
TTITLE16=Бежит река
TTITLE17=Вальс при свечах
TTITLE18=Первая любовь
TTITLE19=Подсолнухи
TTITLE20=Любовь останется
TTITLE21=Красивые слова
EXTD=
EXTT0=
EXTT1=
EXTT2=
EXTT3=
EXTT4=
EXTT5=
EXTT6=
EXTT7=
EXTT8=
EXTT9=
EXTT10=
EXTT11=
EXTT12=
EXTT13=
EXTT14=
EXTT15=
EXTT16=
EXTT17=
EXTT18=
EXTT19=
EXTT20=
EXTT21=
PLAYORDER=
